Coordinates
version=1
nRows=33
nColumns=38
inDegrees=no

Units are S.I. units (second, meters, Newtons, ...)
If the header above contains a line with 'inDegrees', this indicates whether rotational values are in degrees (yes) or radians (no).

endheader
time	pelvis_tilt	pelvis_list	pelvis_rotation	pelvis_tx	pelvis_ty	pelvis_tz	hip_flexion_r	hip_adduction_r	hip_rotation_r	knee_angle_r	ankle_angle_r	subtalar_angle_r	mtp_angle_r	hip_flexion_l	hip_adduction_l	hip_rotation_l	knee_angle_l	ankle_angle_l	subtalar_angle_l	mtp_angle_l	lumbar_extension	lumbar_bending	lumbar_rotation	arm_flex_r	arm_add_r	arm_rot_r	elbow_flex_r	pro_sup_r	wrist_flex_r	wrist_dev_r	arm_flex_l	arm_add_l	arm_rot_l	elbow_flex_l	pro_sup_l	wrist_flex_l	wrist_dev_l
1.86	-0.835512	1.41935	-0.733069	0.925322	-0.531809	0.952867	0.0816029	0.145054	-0.227305	0.236362	-0.0242982	0	0	0.28558	-0.163494	0.0316817	1.39883	-0.0956597	0	0	-0.187256	0.111921	-0.137342	-0.222511	-0.0565771	-0.477437	0.378755	0.964279	0	0	-0.0625334	-0.358079	0.622004	0.648667	0.653558	0	0
1.87	-0.815815	1.42117	-0.760801	0.923477	-0.539387	0.954296	0.0629915	0.145629	-0.215959	0.221627	-0.0236262	0	0	0.306466	-0.159266	0.0293828	1.40104	-0.0911035	0	0	-0.192182	0.107792	-0.127237	-0.222755	-0.0543751	-0.48407	0.378786	0.969509	0	0	-0.0629329	-0.357874	0.619127	0.652009	0.656497	0	0
1.88	-0.793635	1.42279	-0.791825	0.921587	-0.546867	0.955672	0.0438774	0.145705	-0.204331	0.206425	-0.0231658	0	0	0.325291	-0.155645	0.0257692	1.39824	-0.0870038	0	0	-0.197762	0.103541	-0.116187	-0.223074	-0.0523864	-0.490847	0.379577	0.976127	0	0	-0.0630033	-0.357548	0.616021	0.655175	0.659167	0	0
1.89	-0.76826	1.42431	-0.827184	0.919641	-0.554303	0.956995	0.0246052	0.145018	-0.191679	0.191214	-0.02244	0	0	0.341451	-0.152287	0.0205428	1.39028	-0.0824789	0	0	-0.203739	0.0988185	-0.104654	-0.223154	-0.0509899	-0.496484	0.380726	0.984699	0	0	-0.0637925	-0.356848	0.610688	0.658489	0.66181	0	0
1.9	-0.740045	1.42581	-0.866605	0.917632	-0.561763	0.958241	0.0056861	0.143469	-0.177913	0.177052	-0.0215947	0	0	0.355336	-0.14952	0.0131407	1.37757	-0.0772827	0	0	-0.209579	0.0934839	-0.0929678	-0.223113	-0.0500447	-0.499757	0.383053	0.990074	0	0	-0.0657521	-0.355696	0.602726	0.661682	0.665154	0	0
1.91	-0.710436	1.42698	-0.908362	0.915535	-0.569241	0.959423	-0.0130239	0.141454	-0.162801	0.164096	-0.0212228	0	0	0.366965	-0.147616	0.00442508	1.36045	-0.0700136	0	0	-0.215377	0.0877619	-0.0814597	-0.222301	-0.0496372	-0.500565	0.385336	0.992531	0	0	-0.0687193	-0.35428	0.59283	0.664573	0.670724	0	0
1.92	-0.677261	1.42761	-0.953307	0.91351	-0.576671	0.960554	-0.0319524	0.138795	-0.147744	0.151531	-0.0209714	0	0	0.376277	-0.14554	-0.00409486	1.33933	-0.0614633	0	0	-0.221719	0.081831	-0.0707963	-0.220695	-0.0495569	-0.500152	0.387129	0.994153	0	0	-0.0717547	-0.352868	0.583139	0.667254	0.676357	0	0
1.93	-0.643604	1.42809	-0.998039	0.911593	-0.584076	0.961589	-0.0504184	0.135675	-0.133338	0.139131	-0.0205641	0	0	0.384192	-0.143209	-0.0120843	1.31443	-0.0516736	0	0	-0.228156	0.0760041	-0.0605802	-0.219248	-0.0491382	-0.501785	0.39007	0.996688	0	0	-0.0742663	-0.351296	0.574384	0.669297	0.681523	0	0
1.94	-0.612989	1.42864	-1.03987	0.909712	-0.591469	0.962485	-0.0677812	0.132281	-0.118643	0.127592	-0.0198789	0	0	0.390912	-0.141484	-0.0205814	1.28595	-0.0408049	0	0	-0.233776	0.0702719	-0.0510919	-0.216902	-0.0493007	-0.501675	0.391874	0.998666	0	0	-0.0772073	-0.349404	0.565469	0.670531	0.686928	0	0
1.95	-0.58558	1.42892	-1.07843	0.907863	-0.598858	0.963269	-0.0842111	0.128977	-0.104253	0.117939	-0.0189264	0	0	0.395988	-0.140796	-0.0297974	1.25417	-0.0300389	0	0	-0.238923	0.064799	-0.0424674	-0.213307	-0.0501078	-0.499261	0.391802	0.998586	0	0	-0.0805644	-0.347393	0.556638	0.671325	0.692389	0	0
1.96	-0.546739	1.42962	-1.12542	0.905021	-0.606227	0.963871	-0.0996709	0.126766	-0.0877296	0.111171	-0.0191915	0	0	0.401405	-0.153967	-0.0378498	1.21735	-0.0125275	0	0	-0.243631	0.0557863	-0.036271	-0.209685	-0.0491493	-0.494686	0.39036	0.996575	0	0	-0.0834306	-0.347254	0.548696	0.671402	0.697053	0	0
1.97	-0.52639	1.42959	-1.15559	0.903258	-0.613536	0.964391	-0.113966	0.124019	-0.075024	0.104719	-0.0173467	0	0	0.404059	-0.155901	-0.0498814	1.17919	-0.0040523	0	0	-0.248033	0.051196	-0.0290365	-0.206063	-0.0497076	-0.490397	0.391263	0.99295	0	0	-0.085684	-0.34554	0.544133	0.670536	0.700514	0	0
1.98	-0.509272	1.42986	-1.18154	0.901584	-0.620851	0.964778	-0.127443	0.121386	-0.0633547	0.0980725	-0.0155424	0	0	0.405833	-0.158676	-0.0633943	1.13812	0.00337126	0	0	-0.251666	0.0470857	-0.0224457	-0.202718	-0.0498747	-0.486997	0.392491	0.990065	0	0	-0.0872132	-0.344057	0.542368	0.668539	0.702607	0	0
1.99	-0.494811	1.43026	-1.20415	0.900017	-0.628219	0.965056	-0.139871	0.118901	-0.0529392	0.0931143	-0.0132417	0	0	0.406195	-0.162073	-0.0786844	1.09395	0.0102595	0	0	-0.254837	0.0432283	-0.0168007	-0.19866	-0.0500431	-0.483952	0.391997	0.989209	0	0	-0.0888304	-0.342659	0.54092	0.666328	0.703699	0	0
2	-0.48061	1.43099	-1.22605	0.898543	-0.635594	0.965202	-0.151241	0.116031	-0.0433082	0.0890621	-0.00997103	0	0	0.404967	-0.165278	-0.0959679	1.04688	0.0173164	0	0	-0.257666	0.0393603	-0.0119056	-0.194222	-0.0500348	-0.481326	0.390879	0.988078	0	0	-0.0904397	-0.341198	0.539659	0.663826	0.703879	0	0
2.01	-0.468374	1.43203	-1.2454	0.897195	-0.642951	0.965195	-0.161672	0.113135	-0.0344154	0.0855191	-0.00613702	0	0	0.402573	-0.16851	-0.115456	0.997338	0.0240329	0	0	-0.260095	0.0358256	-0.0078142	-0.190368	-0.0498108	-0.478109	0.391172	0.986103	0	0	-0.0920319	-0.340023	0.539667	0.661395	0.702679	0	0
2.02	-0.459477	1.43325	-1.26054	0.895947	-0.650371	0.96504	-0.171272	0.110543	-0.0265719	0.0827072	-0.00207845	0	0	0.39934	-0.171626	-0.136699	0.945624	0.029919	0	0	-0.262188	0.0328414	-0.00472667	-0.186305	-0.0494251	-0.475156	0.390855	0.98455	0	0	-0.0938052	-0.339249	0.540703	0.659342	0.700637	0	0
2.03	-0.452319	1.4347	-1.27326	0.894845	-0.65784	0.964757	-0.179986	0.107912	-0.0196077	0.0810371	0.00252675	0	0	0.395269	-0.174025	-0.159632	0.891741	0.0343298	0	0	-0.263984	0.0302177	-0.00209375	-0.182656	-0.0490341	-0.472176	0.390723	0.98439	0	0	-0.0954825	-0.338414	0.542246	0.657267	0.697955	0	0
2.04	-0.445314	1.43636	-1.28558	0.893912	-0.665412	0.964356	-0.187941	0.104924	-0.013238	0.0805056	0.00794524	0	0	0.390016	-0.175367	-0.184627	0.835816	0.0373319	0	0	-0.265378	0.0277505	0.000172675	-0.179323	-0.0485446	-0.47102	0.390674	0.985348	0	0	-0.0973858	-0.337476	0.544071	0.655439	0.694292	0	0
2.05	-0.472897	1.44196	-1.26639	0.894217	-0.672388	0.963664	-0.188174	0.102076	-0.0119786	0.0812409	0.0142223	0	0	0.397559	-0.164715	-0.186315	0.790464	0.0268081	0	0	-0.263391	0.0266328	-0.00678744	-0.166294	-0.0521222	-0.458075	0.381688	0.985915	0	0	-0.109629	-0.334547	0.527925	0.659301	0.6941	0	0
2.06	-0.451265	1.44056	-1.2944	0.893407	-0.680705	0.963318	-0.203277	0.0973826	-0.00381374	0.0763397	0.0189727	0	0	0.378665	-0.164207	-0.230918	0.72161	0.0327385	0	0	-0.267274	0.023321	-0.00478917	-0.1646	-0.0534517	-0.44722	0.381502	0.978207	0	0	-0.114777	-0.33145	0.520217	0.657939	0.698597	0	0
2.07	-0.431745	1.44109	-1.31546	0.892713	-0.6887	0.962564	-0.214734	0.0935424	-0.00128492	0.0732754	0.0251514	0	0	0.370149	-0.162685	-0.257934	0.664857	0.0360063	0	0	-0.269367	0.0238737	0.00452772	-0.170199	-0.0493097	-0.468332	0.391483	0.982279	0	0	-0.105643	-0.332229	0.547082	0.649587	0.690367	0	0
2.08	-0.431436	1.44503	-1.3186	0.892563	-0.696731	0.961836	-0.219302	0.0900266	0.000638404	0.0745141	0.0317165	0	0	0.365352	-0.160705	-0.285279	0.607975	0.0380491	0	0	-0.26769	0.019156	-0.00669999	-0.159351	-0.0525553	-0.446862	0.379036	0.978482	0	0	-0.119863	-0.329036	0.523139	0.65329	0.694395	0	0
2.09	-0.414175	1.44783	-1.33676	0.892421	-0.704979	0.961004	-0.226908	0.0852001	0.000146708	0.0740913	0.0391327	0	0	0.358014	-0.155403	-0.312531	0.550415	0.0398133	0	0	-0.267019	0.0164117	-0.00931584	-0.158268	-0.0525494	-0.443913	0.379691	0.97553	0	0	-0.122991	-0.327295	0.522454	0.650194	0.697209	0	0
2.1	-0.401156	1.45141	-1.34949	0.89249	-0.713376	0.959995	-0.233229	0.0808546	-0.0014674	0.0744834	0.0468841	0	0	0.352016	-0.148425	-0.336161	0.49492	0.0437475	0	0	-0.264819	0.0144479	-0.0128838	-0.157983	-0.0526396	-0.443506	0.380583	0.976461	0	0	-0.126458	-0.325469	0.522883	0.647092	0.696852	0	0
2.11	-0.363126	1.45303	-1.38609	0.892458	-0.72196	0.958977	-0.242844	0.0742033	-0.00471212	0.0743582	0.0557601	0	0	0.341654	-0.136816	-0.357268	0.438032	0.0487519	0	0	-0.264381	0.0134361	-0.00792121	-0.165441	-0.0503719	-0.45687	0.389783	0.979304	0	0	-0.120169	-0.32471	0.541261	0.638109	0.693865	0	0
2.12	-0.341498	1.45715	-1.4087	0.892865	-0.730557	0.95811	-0.24639	0.0676153	-0.00662427	0.0790371	0.0644031	0	0	0.332742	-0.124164	-0.373562	0.379277	0.0523875	0	0	-0.261619	0.00685	-0.0192831	-0.157159	-0.0522476	-0.449361	0.380611	0.981156	0	0	-0.131422	-0.323251	0.531321	0.638761	0.691164	0	0
2.13	-0.274528	1.45698	-1.47434	0.892973	-0.739435	0.957253	-0.256172	0.0572982	-0.0137058	0.0831365	0.0757992	0	0	0.315763	-0.104164	-0.378931	0.316123	0.0539185	0	0	-0.261208	0.00302721	-0.0148767	-0.165065	-0.0496063	-0.462139	0.39208	0.981126	0	0	-0.124948	-0.323082	0.552549	0.628116	0.684198	0	0
2.14	-0.244698	1.4605	-1.50554	0.893518	-0.748371	0.956389	-0.258622	0.0497898	-0.0175069	0.0912731	0.0855485	0	0	0.302788	-0.0871432	-0.374101	0.253761	0.0542618	0	0	-0.259717	-0.00453296	-0.0274248	-0.15706	-0.0526864	-0.445157	0.383934	0.979022	0	0	-0.13965	-0.319322	0.527915	0.630495	0.683132	0	0
2.15	-0.201521	1.4619	-1.54941	0.893797	-0.757536	0.955422	-0.263804	0.0416973	-0.0227401	0.099397	0.0962637	0	0	0.285839	-0.068495	-0.358532	0.19083	0.052381	0	0	-0.257942	-0.00962948	-0.0303951	-0.158255	-0.05335	-0.441206	0.385234	0.97236	0	0	-0.144041	-0.316535	0.524225	0.624838	0.685156	0	0
2.16	-0.161927	1.46316	-1.59083	0.89393	-0.766863	0.954379	-0.268184	0.034002	-0.0280463	0.109342	0.10738	0	0	0.267428	-0.0512889	-0.334527	0.128724	0.0463922	0	0	-0.255466	-0.014664	-0.0318758	-0.15982	-0.0539683	-0.43925	0.386388	0.973628	0	0	-0.148613	-0.314166	0.521866	0.619333	0.685241	0	0
2.17	-0.132001	1.46449	-1.62381	0.893891	-0.7763	0.953247	-0.271395	0.0272836	-0.0329201	0.121178	0.118473	0	0	0.249981	-0.0379378	-0.307888	0.0734739	0.0379315	0	0	-0.252529	-0.0189161	-0.0314543	-0.161888	-0.0542867	-0.440377	0.387467	0.981252	0	0	-0.153151	-0.312444	0.521254	0.614545	0.683752	0	0
2.18	-0.111421	1.46607	-1.64784	0.893729	-0.785793	0.952041	-0.273184	0.0216604	-0.0380077	0.135111	0.129726	0	0	0.237937	-0.0295203	-0.286907	0.0351441	0.0331008	0	0	-0.249364	-0.0222547	-0.0296931	-0.164557	-0.0541856	-0.442153	0.389602	0.985489	0	0	-0.157417	-0.311062	0.52155	0.610153	0.680709	0	0
